<?xml version="1.0" encoding="utf-8"?>
<!-- Generator: Adobe Illustrator 18.1.1, SVG Export Plug-In . SVG Version: 6.00 Build 0)  -->
<!DOCTYPE svg PUBLIC "-//W3C//DTD SVG 1.1//EN" "http://www.w3.org/Graphics/SVG/1.1/DTD/svg11.dtd">
<svg version="1.1" id="Layer_1" xmlns="http://www.w3.org/2000/svg" xmlns:xlink="http://www.w3.org/1999/xlink" x="0px" y="0px"
	 viewBox="0 0 309.9 75" enable-background="new 0 0 309.9 75" xml:space="preserve">
<g>
	<path fill="#02AEDC" d="M37.5,0C16.8,0,0,16.8,0,37.5c0,8.3,2.7,16,7.3,22.3l33.3-33.3H26.9c-9.2,0-8.5-12-8.5-12h22.1
		c20.6,0,20.6,19.9,20.6,19.9v22.8c-12.2,0-12-7.4-12-7.4V35L15.9,68.2C22,72.5,29.5,75,37.5,75C58.2,75,75,58.2,75,37.5
		S58.2,0,37.5,0L37.5,0L37.5,0z"/>
	<text transform="matrix(1 0 0 1 104.998 32.2734)" fill="#02AEDC" font-family="'ProximaNova-Bold'" font-size="30">FUTURE</text>
	<text transform="matrix(1 0 0 1 104.998 62.2734)" fill="#02AEDC" font-family="'ProximaNova-Bold'" font-size="30">INSIGHTS LIVE</text>
</g>
</svg>
