<?xml version="1.0" encoding="utf-8"?>
<!-- Generator: Adobe Illustrator 18.1.1, SVG Export Plug-In . SVG Version: 6.00 Build 0)  -->
<!DOCTYPE svg PUBLIC "-//W3C//DTD SVG 1.1//EN" "http://www.w3.org/Graphics/SVG/1.1/DTD/svg11.dtd">
<svg version="1.1" id="Layer_1" xmlns="http://www.w3.org/2000/svg" xmlns:xlink="http://www.w3.org/1999/xlink" x="0px" y="0px"
	 viewBox="0 0 10 9.5" enable-background="new 0 0 10 9.5" xml:space="preserve">
<path d="M5.3,0.2l1.3,2.6C6.6,2.9,6.7,3,6.8,3l2.9,0.4c0.3,0,0.4,0.4,0.2,0.6L7.8,6C7.7,6.1,7.7,6.2,7.7,6.3l0.5,2.9
	c0,0.3-0.2,0.5-0.5,0.4L5.2,8.2c-0.1-0.1-0.2-0.1-0.3,0L2.3,9.5C2,9.6,1.7,9.4,1.8,9.2l0.5-2.9c0-0.1,0-0.2-0.1-0.3L0.1,4
	C-0.1,3.8,0,3.4,0.3,3.4L3.2,3c0.1,0,0.2-0.1,0.3-0.2l1.3-2.6C4.8-0.1,5.2-0.1,5.3,0.2z"/>
</svg>
